<?xml version="1.0" encoding="UTF-8" standalone="no"?>
<svg
   width="58.39072mm"
   height="58.445248mm"
   viewBox="0 0 58.39072 58.445248"
   version="1.1"
   id="svg8"
   inkscape:version="1.0.2-2 (e86c870879, 2021-01-15)"
   sodipodi:docname="borders_split.svg"
   xmlns:inkscape="http://www.inkscape.org/namespaces/inkscape"
   xmlns:sodipodi="http://sodipodi.sourceforge.net/DTD/sodipodi-0.dtd"
   xmlns="http://www.w3.org/2000/svg"
   xmlns:svg="http://www.w3.org/2000/svg"
   xmlns:rdf="http://www.w3.org/1999/02/22-rdf-syntax-ns#"
   xmlns:cc="http://creativecommons.org/ns#"
   xmlns:dc="http://purl.org/dc/elements/1.1/">
  <defs
     id="defs2" />
  <sodipodi:namedview
     id="base"
     pagecolor="#ffffff"
     bordercolor="#666666"
     borderopacity="1.0"
     inkscape:pageopacity="0.0"
     inkscape:pageshadow="2"
     inkscape:zoom="0.49497475"
     inkscape:cx="395.97979"
     inkscape:cy="190.91883"
     inkscape:document-units="mm"
     inkscape:current-layer="layer1"
     inkscape:document-rotation="0"
     showgrid="false"
     inkscape:window-width="1920"
     inkscape:window-height="1010"
     inkscape:window-x="1073"
     inkscape:window-y="512"
     inkscape:window-maximized="1"
     inkscape:showpageshadow="2"
     inkscape:pagecheckerboard="0"
     inkscape:deskcolor="#d1d1d1" />
  <metadata
     id="metadata5">
    <rdf:RDF>
      <cc:Work
         rdf:about="">
        <dc:format>image/svg+xml</dc:format>
        <dc:type
           rdf:resource="http://purl.org/dc/dcmitype/StillImage" />
        <dc:title />
      </cc:Work>
    </rdf:RDF>
  </metadata>
  <g
     inkscape:label="Layer 1"
     inkscape:groupmode="layer"
     id="layer1"
     transform="translate(66.423382,-5.8845516)">
    <g
       id="g1046"
       style="display:inline"
       transform="matrix(0.03527778,0,0,-0.03527778,-111.57894,633.04648)">
      <path
         d="m 2398,17761 c -47,-22 -74,-46 -104,-93 -29,-46 -31,-89 -4,-113 26,-23 46,-8 61,49 15,56 43,84 93,91 58,8 97,-6 124,-45 42,-62 20,-139 -51,-176 -18,-9 -66,-19 -110,-22 -81,-5 -85,-4 -179,48 -10,6 -26,14 -35,20 -171,93 -289,123 -374,95 -77,-26 -91,-36 -221,-165 -136,-136 -168,-190 -168,-282 0,-52 23,-145 50,-199 6,-10 14,-27 19,-38 5,-10 30,-57 55,-105 41,-77 46,-94 46,-151 0,-101 -18,-153 -64,-187 -21,-15 -50,-28 -64,-28 -54,0 -122,68 -122,121 0,55 51,119 95,119 31,0 65,25 65,47 0,15 -34,43 -54,43 -26,0 -88,-35 -117,-67 -47,-52 -59,-80 -59,-138 0,-46 6,-65 32,-106 18,-27 37,-49 42,-49 5,0 18,-8 28,-17 14,-13 37,-17 88,-17 64,0 71,2 114,38 35,28 49,48 57,82 8,32 16,44 30,44 20,0 20,-1 39,-116 23,-146 -41,-242 -162,-244 -61,0 -78,-8 -78,-35 0,-37 24,-49 88,-42 113,12 172,61 216,180 25,66 11,190 -30,269 -8,14 -14,32 -14,40 0,8 -14,41 -31,74 l -31,59 1,170 c 2,96 7,175 12,182 25,29 93,55 143,53 92,-4 86,-9 86,78 0,72 3,83 30,120 l 30,42 h 162 c 158,0 164,-1 223,-29 240,-114 395,-121 501,-24 45,41 70,92 77,154 8,65 -6,93 -44,87 -21,-3 -25,-9 -30,-59 -8,-78 -36,-129 -84,-157 -35,-20 -49,-22 -120,-18 -104,7 -168,19 -172,31 -1,6 25,24 60,40 83,40 116,87 117,168 0,140 -139,235 -262,178 z m -371,-238 c 21,-9 55,-24 75,-32 21,-9 38,-22 38,-28 0,-10 -50,-13 -216,-13 -198,0 -215,1 -212,17 4,21 73,70 108,77 46,8 168,-4 207,-21 z m -154,-133 c 12,0 8,-22 -8,-40 -8,-9 -18,-39 -21,-66 -7,-57 -24,-74 -74,-74 -20,0 -45,-7 -56,-15 -10,-8 -27,-15 -36,-15 -16,0 -18,12 -18,104 0,60 4,106 10,108 7,2 121,1 203,-2 z m -273,-260 c 0,-115 -3,-210 -7,-210 -29,1 -93,174 -93,249 0,63 57,171 90,171 6,0 10,-70 10,-210 z"
         id="path861" />
    </g>
  </g>
</svg>
