<?xml version="1.0" encoding="UTF-8" standalone="no"?>
<svg
   width="58.864166mm"
   height="59.26667mm"
   viewBox="0 0 58.864166 59.26667"
   version="1.1"
   id="svg8"
   inkscape:version="1.0.2-2 (e86c870879, 2021-01-15)"
   sodipodi:docname="borders_split.svg"
   xmlns:inkscape="http://www.inkscape.org/namespaces/inkscape"
   xmlns:sodipodi="http://sodipodi.sourceforge.net/DTD/sodipodi-0.dtd"
   xmlns="http://www.w3.org/2000/svg"
   xmlns:svg="http://www.w3.org/2000/svg"
   xmlns:rdf="http://www.w3.org/1999/02/22-rdf-syntax-ns#"
   xmlns:cc="http://creativecommons.org/ns#"
   xmlns:dc="http://purl.org/dc/elements/1.1/">
  <defs
     id="defs2" />
  <sodipodi:namedview
     id="base"
     pagecolor="#ffffff"
     bordercolor="#666666"
     borderopacity="1.0"
     inkscape:pageopacity="0.0"
     inkscape:pageshadow="2"
     inkscape:zoom="0.49497475"
     inkscape:cx="395.97979"
     inkscape:cy="190.91883"
     inkscape:document-units="mm"
     inkscape:current-layer="layer1"
     inkscape:document-rotation="0"
     showgrid="false"
     inkscape:window-width="1920"
     inkscape:window-height="1010"
     inkscape:window-x="1073"
     inkscape:window-y="512"
     inkscape:window-maximized="1"
     inkscape:showpageshadow="2"
     inkscape:pagecheckerboard="0"
     inkscape:deskcolor="#d1d1d1" />
  <metadata
     id="metadata5">
    <rdf:RDF>
      <cc:Work
         rdf:about="">
        <dc:format>image/svg+xml</dc:format>
        <dc:type
           rdf:resource="http://purl.org/dc/dcmitype/StillImage" />
        <dc:title />
      </cc:Work>
    </rdf:RDF>
  </metadata>
  <g
     inkscape:label="Layer 1"
     inkscape:groupmode="layer"
     id="layer1"
     transform="translate(-260.29859,76.036898)">
    <g
       id="g1026"
       style="display:inline"
       transform="matrix(0.03527778,0,0,-0.03527778,-111.57894,633.04648)">
      <path
         d="m 11061,20056 c -24,-25 -74,-60 -110,-78 -57,-28 -78,-33 -156,-36 -49,-2 -93,-9 -96,-14 -4,-6 -5,-36 -2,-68 9,-96 -43,-220 -121,-288 -29,-25 -37,-39 -34,-60 l 3,-27 h 270 270 l 3,-334 2,-335 -90,-86 c -49,-47 -90,-93 -90,-101 0,-17 190,-209 207,-209 15,0 213,196 213,210 0,6 -12,22 -27,36 -16,14 -56,53 -91,86 l -62,61 2,336 3,336 337,3 336,2 83,-90 c 45,-49 88,-90 95,-90 19,0 204,191 204,210 0,18 -188,210 -206,210 -6,0 -49,-40 -95,-90 l -84,-90 h -338 -338 l 2,264 c 1,144 -1,268 -5,275 -14,22 -42,11 -85,-33 z m 26,-293 -2,-208 -207,-3 c -149,-2 -208,1 -208,9 0,6 12,30 28,53 50,75 67,133 72,242 0,6 31,14 73,17 72,6 134,31 197,78 49,36 50,34 47,-188 z m 1025,-228 c 12,-16 11,-19 -48,-79 l -56,-57 -53,48 c -31,28 -53,57 -54,70 -1,14 18,39 52,72 l 52,50 50,-47 c 27,-26 53,-51 57,-57 z m -927,-848 54,-53 -54,-57 c -29,-31 -59,-57 -67,-57 -7,0 -38,25 -68,55 l -54,55 55,55 c 29,30 60,55 68,55 7,0 37,-24 66,-53 z"
         id="path843" />
      <path
         d="m 11252,19912 c -9,-7 -12,-42 -10,-143 l 3,-134 170,-5 c 172,-5 205,0 205,30 0,35 -21,40 -173,40 h -149 l 7,95 c 9,112 -7,146 -53,117 z"
         id="path847" />
      <path
         d="m 10730,19405 c -10,-12 -10,-21 -1,-41 11,-26 13,-26 109,-23 l 97,4 3,-151 c 2,-137 4,-152 21,-157 10,-2 26,0 35,5 24,13 24,338 0,362 -22,23 -245,23 -264,1 z"
         id="path853" />
      <path
         d="m 11252,19402 c -9,-7 -12,-77 -10,-318 l 3,-309 24,-3 c 13,-2 28,2 33,10 5,7 8,128 6,283 l -3,270 280,5 280,5 3,26 c 2,20 -2,28 -20,33 -34,9 -581,7 -596,-2 z"
         id="path855" />
    </g>
  </g>
</svg>
