<?xml version="1.0" encoding="UTF-8" standalone="no"?>
<svg
   width="55.027477mm"
   height="55.219109mm"
   viewBox="0 0 55.027477 55.219109"
   version="1.1"
   id="svg8"
   inkscape:version="1.0.2-2 (e86c870879, 2021-01-15)"
   sodipodi:docname="borders_split.svg"
   xmlns:inkscape="http://www.inkscape.org/namespaces/inkscape"
   xmlns:sodipodi="http://sodipodi.sourceforge.net/DTD/sodipodi-0.dtd"
   xmlns="http://www.w3.org/2000/svg"
   xmlns:svg="http://www.w3.org/2000/svg"
   xmlns:rdf="http://www.w3.org/1999/02/22-rdf-syntax-ns#"
   xmlns:cc="http://creativecommons.org/ns#"
   xmlns:dc="http://purl.org/dc/elements/1.1/">
  <defs
     id="defs2" />
  <sodipodi:namedview
     id="base"
     pagecolor="#ffffff"
     bordercolor="#666666"
     borderopacity="1.0"
     inkscape:pageopacity="0.0"
     inkscape:pageshadow="2"
     inkscape:zoom="0.49497475"
     inkscape:cx="395.97979"
     inkscape:cy="190.91883"
     inkscape:document-units="mm"
     inkscape:current-layer="layer1"
     inkscape:document-rotation="0"
     showgrid="false"
     inkscape:window-width="1920"
     inkscape:window-height="1010"
     inkscape:window-x="1073"
     inkscape:window-y="512"
     inkscape:window-maximized="1"
     inkscape:showpageshadow="2"
     inkscape:pagecheckerboard="0"
     inkscape:deskcolor="#d1d1d1" />
  <metadata
     id="metadata5">
    <rdf:RDF>
      <cc:Work
         rdf:about="">
        <dc:format>image/svg+xml</dc:format>
        <dc:type
           rdf:resource="http://purl.org/dc/dcmitype/StillImage" />
        <dc:title />
      </cc:Work>
    </rdf:RDF>
  </metadata>
  <g
     inkscape:label="Layer 1"
     inkscape:groupmode="layer"
     id="layer1"
     transform="translate(-94.753146,-5.6217793)">
    <g
       id="g1038"
       style="display:inline"
       transform="matrix(0.03527778,0,0,-0.03527778,-111.57894,633.04648)">
      <path
         d="m 6308,17782 c -16,-3 -18,-17 -18,-108 v -104 h -75 -74 l -3,103 -3,102 -125,3 c -109,2 -126,0 -137,-15 -14,-19 -18,-229 -5,-250 5,-8 43,-13 107,-15 l 100,-3 v -70 -70 h -97 c -73,0 -101,-4 -112,-15 -14,-13 -16,-85 -17,-553 -1,-549 0,-567 36,-567 6,0 20,8 29,19 15,17 17,62 16,517 0,275 -1,505 0,512 0,10 18,12 73,10 l 72,-3 -3,-71 c -6,-116 -9,-114 114,-114 h 105 l -3,-82 -3,-83 -90,-5 -90,-5 -3,-325 c -1,-179 0,-335 3,-347 3,-13 13,-23 23,-23 44,1 44,1 43,324 l -2,306 h 89 c 87,0 90,1 96,25 4,14 3,68 0,120 l -7,95 h 68 68 l -5,-105 c -3,-72 -1,-111 7,-122 10,-13 34,-16 143,-16 173,0 171,-2 172,170 0,151 2,149 -142,140 -86,-5 -99,-4 -107,11 -7,14 -8,69 -2,105 0,5 49,7 107,6 131,-5 139,2 130,99 -9,102 -35,94 306,91 202,-2 302,1 309,8 6,6 9,21 7,34 l -3,24 -334,3 c -248,2 -337,-1 -348,-10 -11,-9 -14,-30 -12,-82 2,-39 0,-77 -4,-83 -10,-16 -138,-18 -153,-3 -6,6 -7,40 -3,87 10,115 3,123 -111,123 h -90 v 63 c 0,34 4,68 9,75 7,11 101,13 527,11 l 519,-3 v 34 35 h -540 c -297,1 -548,-1 -557,-3 z m -233,-105 c 4,-18 5,-49 3,-68 l -3,-34 -72,-3 -73,-3 v 64 c 0,35 3,67 7,70 3,4 35,7 69,7 h 63 z m 213,-250 3,-77 h -76 -75 v 73 c 0,41 2,76 4,78 3,2 35,4 73,4 l 68,-1 z m 184,65 c 5,-5 8,-38 6,-73 l -3,-64 h -60 -60 l -3,63 c -4,81 6,93 66,88 25,-3 49,-9 54,-14 z m -189,-211 c 4,-1 7,-29 5,-63 l -3,-63 h -70 -70 l -3,54 c -2,29 -1,59 1,65 4,9 81,13 140,7 z m 190,0 c 4,0 7,-29 5,-63 l -3,-63 h -60 -60 l -3,53 c -2,30 2,60 8,67 10,12 59,15 113,6 z m 242,-281 v -85 h -80 -80 l -6,80 c -3,44 -3,84 -1,88 2,4 40,6 85,5 l 82,-3 z"
         id="path859" />
    </g>
  </g>
</svg>
