<?xml version="1.0" encoding="UTF-8" standalone="no"?>
<svg
   width="59.821777mm"
   height="61.709679mm"
   viewBox="0 0 59.821777 61.709679"
   version="1.1"
   id="svg8"
   inkscape:version="1.0.2-2 (e86c870879, 2021-01-15)"
   sodipodi:docname="borders_split.svg"
   xmlns:inkscape="http://www.inkscape.org/namespaces/inkscape"
   xmlns:sodipodi="http://sodipodi.sourceforge.net/DTD/sodipodi-0.dtd"
   xmlns="http://www.w3.org/2000/svg"
   xmlns:svg="http://www.w3.org/2000/svg"
   xmlns:rdf="http://www.w3.org/1999/02/22-rdf-syntax-ns#"
   xmlns:cc="http://creativecommons.org/ns#"
   xmlns:dc="http://purl.org/dc/elements/1.1/">
  <defs
     id="defs2" />
  <sodipodi:namedview
     id="base"
     pagecolor="#ffffff"
     bordercolor="#666666"
     borderopacity="1.0"
     inkscape:pageopacity="0.0"
     inkscape:pageshadow="2"
     inkscape:zoom="0.49497475"
     inkscape:cx="395.97979"
     inkscape:cy="190.91883"
     inkscape:document-units="mm"
     inkscape:current-layer="layer1"
     inkscape:document-rotation="0"
     showgrid="false"
     inkscape:window-width="1920"
     inkscape:window-height="1010"
     inkscape:window-x="1073"
     inkscape:window-y="512"
     inkscape:window-maximized="1"
     inkscape:showpageshadow="2"
     inkscape:pagecheckerboard="0"
     inkscape:deskcolor="#d1d1d1" />
  <metadata
     id="metadata5">
    <rdf:RDF>
      <cc:Work
         rdf:about="">
        <dc:format>image/svg+xml</dc:format>
        <dc:type
           rdf:resource="http://purl.org/dc/dcmitype/StillImage" />
        <dc:title />
      </cc:Work>
    </rdf:RDF>
  </metadata>
  <g
     inkscape:label="Layer 1"
     inkscape:groupmode="layer"
     id="layer1"
     transform="translate(-12.681094,-170.72799)">
    <g
       id="g1092"
       style="display:inline"
       transform="matrix(0.03527778,0,0,-0.03527778,-111.57894,633.04648)">
      <path
         d="m 4520,13103 c -14,-3 -40,-19 -57,-36 -29,-27 -33,-37 -33,-84 0,-41 4,-54 19,-63 32,-17 51,-2 51,39 0,20 7,47 16,59 30,43 94,16 94,-41 0,-38 -87,-110 -151,-125 -84,-20 -151,-24 -205,-15 -58,11 -94,2 -94,-25 0,-36 20,-42 150,-42 175,0 267,31 330,110 23,30 33,53 37,94 5,53 4,57 -30,91 -19,19 -44,35 -55,35 -11,0 -26,2 -34,4 -7,2 -24,1 -38,-1 z"
         id="path901" />
      <path
         d="m 3875,13016 c -46,-22 -75,-68 -78,-127 -4,-55 -15,-69 -61,-69 -40,0 -107,-34 -131,-67 -14,-20 -19,-43 -19,-80 1,-43 7,-59 34,-93 41,-52 86,-74 178,-90 59,-10 90,-10 155,1 122,18 139,31 160,126 9,43 17,98 17,123 0,55 -24,152 -48,198 -37,70 -139,109 -207,78 z m 132,-103 c 52,-68 66,-194 33,-304 -13,-45 -24,-49 -158,-49 -89,0 -109,3 -150,24 -51,26 -87,75 -77,105 12,39 43,55 110,56 85,2 95,12 95,90 0,81 23,115 80,115 32,0 43,-6 67,-37 z"
         id="path903" />
      <path
         d="m 5144,12778 c -11,-13 -32,-40 -47,-60 l -28,-38 -452,-2 -452,-3 -3,-26 -3,-27 303,-7 c 167,-4 381,-5 477,-3 l 174,3 49,55 c 53,60 67,92 48,115 -18,21 -43,18 -66,-7 z"
         id="path921" />
      <path
         d="m 4123,12510 c -21,-8 -22,-16 -25,-137 -4,-149 1,-173 36,-173 34,0 39,24 31,141 -6,80 -5,99 6,100 8,1 62,1 121,-1 l 107,-2 7,26 c 12,49 -6,56 -140,55 -66,0 -131,-4 -143,-9 z"
         id="path929" />
      <path
         d="m 3786,12405 c -11,-12 -12,-23 -5,-47 13,-47 10,-164 -6,-231 -15,-63 -47,-113 -96,-148 -29,-21 -34,-21 -58,-8 -18,10 -27,24 -29,46 -4,39 26,63 80,63 35,0 38,2 38,30 0,25 -4,30 -35,36 -76,14 -140,-29 -151,-101 -12,-83 42,-148 121,-147 86,2 157,73 195,194 23,75 29,295 8,316 -16,16 -44,15 -62,-3 z"
         id="path931" />
      <path
         d="m 3953,12408 c -4,-7 -8,-67 -8,-133 0,-66 -1,-268 -3,-450 l -2,-330 -53,-35 c -59,-41 -74,-80 -38,-100 18,-9 29,-5 73,28 97,72 89,16 86,553 l -3,474 -22,3 c -11,2 -25,-3 -30,-10 z"
         id="path933" />
    </g>
  </g>
</svg>
