<?xml version="1.0" encoding="UTF-8" standalone="no"?>
<svg
   width="57.16761mm"
   height="57.100342mm"
   viewBox="0 0 57.16761 57.100342"
   version="1.1"
   id="svg8"
   inkscape:version="1.0.2-2 (e86c870879, 2021-01-15)"
   sodipodi:docname="borders_split.svg"
   xmlns:inkscape="http://www.inkscape.org/namespaces/inkscape"
   xmlns:sodipodi="http://sodipodi.sourceforge.net/DTD/sodipodi-0.dtd"
   xmlns="http://www.w3.org/2000/svg"
   xmlns:svg="http://www.w3.org/2000/svg"
   xmlns:rdf="http://www.w3.org/1999/02/22-rdf-syntax-ns#"
   xmlns:cc="http://creativecommons.org/ns#"
   xmlns:dc="http://purl.org/dc/elements/1.1/">
  <defs
     id="defs2" />
  <sodipodi:namedview
     id="base"
     pagecolor="#ffffff"
     bordercolor="#666666"
     borderopacity="1.0"
     inkscape:pageopacity="0.0"
     inkscape:pageshadow="2"
     inkscape:zoom="0.49497475"
     inkscape:cx="395.97979"
     inkscape:cy="190.91883"
     inkscape:document-units="mm"
     inkscape:current-layer="layer1"
     inkscape:document-rotation="0"
     showgrid="false"
     inkscape:window-width="1920"
     inkscape:window-height="1010"
     inkscape:window-x="1073"
     inkscape:window-y="512"
     inkscape:window-maximized="1"
     inkscape:showpageshadow="2"
     inkscape:pagecheckerboard="0"
     inkscape:deskcolor="#d1d1d1" />
  <metadata
     id="metadata5">
    <rdf:RDF>
      <cc:Work
         rdf:about="">
        <dc:format>image/svg+xml</dc:format>
        <dc:type
           rdf:resource="http://purl.org/dc/dcmitype/StillImage" />
        <dc:title />
      </cc:Work>
    </rdf:RDF>
  </metadata>
  <g
     inkscape:label="Layer 1"
     inkscape:groupmode="layer"
     id="layer1"
     transform="translate(-179.07469,-176.19923)">
    <g
       id="g1079"
       style="display:inline"
       transform="matrix(0.03527778,0,0,-0.03527778,-111.57894,633.04648)">
      <path
         d="m 8246,12941 c -8,-12 -8,-929 -1,-941 15,-24 47,-2 159,104 108,103 117,115 107,135 -7,11 -19,21 -28,21 -8,0 -50,-34 -92,-75 -43,-41 -81,-72 -84,-68 -10,9 -8,735 1,750 6,9 101,12 381,13 205,1 375,0 378,-3 2,-3 -28,-39 -67,-81 -53,-56 -71,-81 -68,-98 7,-49 37,-33 137,73 122,130 125,133 111,159 -10,20 -20,20 -470,20 -252,0 -461,-4 -464,-9 z"
         id="path913" />
      <path
         d="m 9269,12929 c -23,-44 -4,-47 286,-50 149,-1 278,1 288,6 20,8 22,36 5,53 -9,9 -87,12 -290,12 -272,0 -278,0 -289,-21 z"
         id="path915" />
      <path
         d="m 9340,12805 c -81,-14 -144,-35 -162,-53 -7,-7 -17,-12 -23,-12 -20,0 -153,-147 -173,-193 -11,-25 -26,-72 -33,-104 -16,-74 -26,-94 -44,-87 -11,5 -14,39 -13,198 1,105 -2,197 -6,204 -5,9 -68,12 -237,12 h -229 v -229 c 0,-173 3,-232 13,-238 6,-4 97,-8 202,-8 170,0 190,-2 193,-17 3,-17 -9,-22 -113,-46 -76,-18 -118,-44 -189,-115 -105,-106 -127,-150 -146,-288 -14,-102 -7,-139 28,-139 32,0 42,22 42,95 0,70 24,163 49,188 6,6 11,16 11,22 1,14 57,73 105,110 52,40 103,61 192,79 93,18 96,20 88,66 -7,43 6,53 54,44 33,-7 51,15 51,60 0,33 25,128 42,157 49,88 113,150 198,191 54,27 80,33 150,36 47,2 91,9 98,14 18,16 15,46 -7,58 -24,12 -43,11 -141,-5 z m -520,-260 c 3,-88 4,-165 3,-171 -3,-7 -59,-10 -171,-9 l -167,1 -3,159 c -1,88 -1,164 2,170 3,8 55,11 168,11 l 163,-1 z"
         id="path919"
         style="display:inline" />
      <path
         d="m 8240,11903 c -1,-12 -1,-546 -1,-561 1,-9 12,-12 34,-10 l 32,3 v 270 c 0,149 -1,278 -3,288 -2,11 -13,17 -33,17 -16,0 -29,-3 -29,-7 z"
         id="path935"
         style="display:inline" />
    </g>
  </g>
</svg>
