<?xml version="1.0" encoding="UTF-8" standalone="no"?>
<svg
   width="58.896252mm"
   height="59.104317mm"
   viewBox="0 0 58.896252 59.104317"
   version="1.1"
   id="svg8"
   inkscape:version="1.0.2-2 (e86c870879, 2021-01-15)"
   sodipodi:docname="borders_split.svg"
   xmlns:inkscape="http://www.inkscape.org/namespaces/inkscape"
   xmlns:sodipodi="http://sodipodi.sourceforge.net/DTD/sodipodi-0.dtd"
   xmlns="http://www.w3.org/2000/svg"
   xmlns:svg="http://www.w3.org/2000/svg"
   xmlns:rdf="http://www.w3.org/1999/02/22-rdf-syntax-ns#"
   xmlns:cc="http://creativecommons.org/ns#"
   xmlns:dc="http://purl.org/dc/elements/1.1/">
  <defs
     id="defs2" />
  <sodipodi:namedview
     id="base"
     pagecolor="#ffffff"
     bordercolor="#666666"
     borderopacity="1.0"
     inkscape:pageopacity="0.0"
     inkscape:pageshadow="2"
     inkscape:zoom="0.49497475"
     inkscape:cx="395.97979"
     inkscape:cy="190.91883"
     inkscape:document-units="mm"
     inkscape:current-layer="layer1"
     inkscape:document-rotation="0"
     showgrid="false"
     inkscape:window-width="1920"
     inkscape:window-height="1010"
     inkscape:window-x="1073"
     inkscape:window-y="512"
     inkscape:window-maximized="1"
     inkscape:showpageshadow="2"
     inkscape:pagecheckerboard="0"
     inkscape:deskcolor="#d1d1d1" />
  <metadata
     id="metadata5">
    <rdf:RDF>
      <cc:Work
         rdf:about="">
        <dc:format>image/svg+xml</dc:format>
        <dc:type
           rdf:resource="http://purl.org/dc/dcmitype/StillImage" />
        <dc:title />
      </cc:Work>
    </rdf:RDF>
  </metadata>
  <g
     inkscape:label="Layer 1"
     inkscape:groupmode="layer"
     id="layer1"
     transform="translate(-84.715238,90.111643)">
    <g
       id="g1017"
       style="display:inline"
       transform="matrix(0.03527778,0,0,-0.03527778,-121.7843,620.57327)">
      <path
         d="m 6311,20132 c -61,-26 -105,-72 -126,-136 -16,-47 -17,-58 -5,-87 24,-62 52,-100 94,-127 40,-26 45,-27 179,-25 76,1 137,-2 137,-7 0,-5 -12,-22 -26,-37 -39,-42 -64,-97 -64,-141 0,-53 -16,-69 -77,-75 -52,-6 -112,-36 -147,-76 -38,-42 -43,-29 -42,122 1,127 -1,145 -20,174 -57,90 -161,125 -242,84 -135,-69 -158,-217 -51,-322 48,-47 93,-64 139,-52 17,4 20,12 18,37 -3,27 -8,32 -38,37 -103,17 -143,106 -85,191 35,52 79,64 137,39 80,-34 78,-18 78,-590 0,-565 1,-555 -73,-593 -49,-25 -86,-17 -132,28 -31,29 -35,40 -35,82 0,64 27,96 98,117 51,15 53,17 50,48 -3,28 -7,32 -35,35 -71,7 -162,-72 -183,-158 -18,-75 1,-131 64,-185 49,-44 53,-45 118,-45 78,0 120,20 165,78 l 28,37 6,325 c 3,183 10,342 16,363 28,97 116,157 232,157 77,0 85,8 74,76 -7,45 31,146 70,185 59,60 70,61 432,63 312,1 332,2 360,21 75,51 99,93 98,177 0,62 -3,71 -37,112 -26,32 -52,50 -92,66 -54,20 -58,20 -110,3 -63,-20 -110,-61 -135,-121 -30,-69 -21,-102 28,-102 26,0 43,27 43,67 0,19 10,39 28,56 23,22 37,27 81,27 49,0 57,-3 92,-39 44,-44 48,-70 22,-126 -12,-25 -30,-42 -60,-56 -40,-18 -69,-19 -530,-19 -450,0 -491,2 -528,19 -22,10 -45,24 -51,32 -20,24 -26,77 -14,114 17,52 53,75 116,75 48,0 55,-3 82,-36 16,-20 33,-53 36,-75 6,-35 9,-39 36,-39 24,0 31,5 36,26 16,63 -45,157 -124,190 -58,24 -83,25 -131,6 z"
         id="path837" />
    </g>
  </g>
</svg>
