<?xml version="1.0" encoding="UTF-8" standalone="no"?>
<svg
   width="58.155422mm"
   height="57.801617mm"
   viewBox="0 0 58.155422 57.801617"
   version="1.1"
   id="svg8"
   inkscape:version="1.0.2-2 (e86c870879, 2021-01-15)"
   sodipodi:docname="borders_split.svg"
   xmlns:inkscape="http://www.inkscape.org/namespaces/inkscape"
   xmlns:sodipodi="http://sodipodi.sourceforge.net/DTD/sodipodi-0.dtd"
   xmlns="http://www.w3.org/2000/svg"
   xmlns:svg="http://www.w3.org/2000/svg"
   xmlns:rdf="http://www.w3.org/1999/02/22-rdf-syntax-ns#"
   xmlns:cc="http://creativecommons.org/ns#"
   xmlns:dc="http://purl.org/dc/elements/1.1/">
  <defs
     id="defs2" />
  <sodipodi:namedview
     id="base"
     pagecolor="#ffffff"
     bordercolor="#666666"
     borderopacity="1.0"
     inkscape:pageopacity="0.0"
     inkscape:pageshadow="2"
     inkscape:zoom="0.49497475"
     inkscape:cx="395.97979"
     inkscape:cy="190.91883"
     inkscape:document-units="mm"
     inkscape:current-layer="layer1"
     inkscape:document-rotation="0"
     showgrid="false"
     inkscape:window-width="1920"
     inkscape:window-height="1010"
     inkscape:window-x="1073"
     inkscape:window-y="512"
     inkscape:window-maximized="1"
     inkscape:showpageshadow="2"
     inkscape:pagecheckerboard="0"
     inkscape:deskcolor="#d1d1d1" />
  <metadata
     id="metadata5">
    <rdf:RDF>
      <cc:Work
         rdf:about="">
        <dc:format>image/svg+xml</dc:format>
        <dc:type
           rdf:resource="http://purl.org/dc/dcmitype/StillImage" />
        <dc:title />
      </cc:Work>
    </rdf:RDF>
  </metadata>
  <g
     inkscape:label="Layer 1"
     inkscape:groupmode="layer"
     id="layer1"
     transform="translate(-96.181982,-171.33402)">
    <g
       id="g1084"
       style="display:inline"
       transform="matrix(0.03527778,0,0,-0.03527778,-111.95692,629.26672)">
      <path
         d="m 6309,12955 c -58,-38 -79,-75 -79,-138 0,-65 22,-110 72,-147 29,-22 43,-25 118,-24 89,1 110,8 250,87 94,54 193,97 221,97 11,0 29,5 39,10 30,16 160,13 209,-4 24,-9 78,-42 119,-74 74,-56 76,-57 142,-57 79,0 109,14 135,61 18,33 18,35 0,68 -26,48 -86,74 -140,60 -39,-10 -34,-51 8,-62 25,-6 32,-14 32,-33 0,-20 -6,-25 -32,-27 -27,-3 -47,8 -112,57 -44,34 -83,61 -88,61 -4,0 -21,7 -38,16 -44,24 -217,23 -292,-1 -88,-27 -177,-68 -283,-129 -25,-14 -52,-28 -60,-32 -8,-3 -28,-13 -45,-21 -19,-9 -50,-13 -85,-11 -49,3 -57,6 -77,37 -42,62 -24,124 44,150 27,11 36,10 61,-4 15,-10 33,-31 40,-47 8,-22 16,-29 33,-26 58,8 48,73 -19,125 -55,42 -117,45 -173,8 z"
         id="path911" />
      <path
         d="m 6016,12653 c -48,-13 -116,-106 -116,-158 0,-54 61,-136 109,-148 58,-14 71,48 17,77 -61,32 -56,117 8,151 39,21 68,16 111,-19 26,-21 29,-29 28,-78 -1,-55 -9,-74 -114,-283 -81,-160 -91,-194 -96,-328 -5,-122 8,-162 89,-269 53,-70 58,-82 58,-127 0,-50 -7,-65 -26,-53 -16,10 -34,48 -34,71 0,30 -55,30 -63,0 -15,-58 24,-131 78,-145 37,-9 93,19 106,53 6,16 9,61 7,100 -3,69 -5,75 -44,115 -54,56 -78,100 -94,170 -21,93 9,245 71,354 61,110 118,235 128,286 26,123 -42,224 -158,233 -25,2 -54,1 -65,-2 z"
         id="path923" />
      <path
         d="m 6319,12572 c -16,-11 -19,-27 -19,-113 0,-141 -2,-139 128,-139 71,0 112,4 120,12 8,8 12,49 12,119 0,84 -3,109 -16,120 -21,18 -200,19 -225,1 z m 175,-68 c 8,-22 7,-87 -2,-101 -9,-15 -92,-25 -110,-14 -19,11 -27,83 -13,110 10,17 21,21 65,21 40,0 55,-4 60,-16 z"
         id="path927" />
    </g>
  </g>
</svg>
