<?xml version="1.0" encoding="UTF-8" standalone="no"?>
<svg
   width="54.458046mm"
   height="54.768486mm"
   viewBox="0 0 54.458046 54.768486"
   version="1.1"
   id="svg8"
   inkscape:version="1.0.2-2 (e86c870879, 2021-01-15)"
   sodipodi:docname="borders_split.svg"
   xmlns:inkscape="http://www.inkscape.org/namespaces/inkscape"
   xmlns:sodipodi="http://sodipodi.sourceforge.net/DTD/sodipodi-0.dtd"
   xmlns="http://www.w3.org/2000/svg"
   xmlns:svg="http://www.w3.org/2000/svg"
   xmlns:rdf="http://www.w3.org/1999/02/22-rdf-syntax-ns#"
   xmlns:cc="http://creativecommons.org/ns#"
   xmlns:dc="http://purl.org/dc/elements/1.1/">
  <defs
     id="defs2" />
  <sodipodi:namedview
     id="base"
     pagecolor="#ffffff"
     bordercolor="#666666"
     borderopacity="1.0"
     inkscape:pageopacity="0.0"
     inkscape:pageshadow="2"
     inkscape:zoom="0.49497475"
     inkscape:cx="395.97979"
     inkscape:cy="190.91883"
     inkscape:document-units="mm"
     inkscape:current-layer="layer1"
     inkscape:document-rotation="0"
     showgrid="false"
     inkscape:window-width="1920"
     inkscape:window-height="1010"
     inkscape:window-x="1073"
     inkscape:window-y="512"
     inkscape:window-maximized="1"
     inkscape:showpageshadow="2"
     inkscape:pagecheckerboard="0"
     inkscape:deskcolor="#d1d1d1" />
  <metadata
     id="metadata5">
    <rdf:RDF>
      <cc:Work
         rdf:about="">
        <dc:format>image/svg+xml</dc:format>
        <dc:type
           rdf:resource="http://purl.org/dc/dcmitype/StillImage" />
        <dc:title />
      </cc:Work>
    </rdf:RDF>
  </metadata>
  <g
     inkscape:label="Layer 1"
     inkscape:groupmode="layer"
     id="layer1"
     transform="translate(-98.332654,-93.187354)">
    <g
       id="g1057"
       style="display:inline"
       transform="matrix(0,0.03527778,0.03527778,0,-386.91321,-116.56902)">
      <path
         d="m 6087,15293 c -4,-3 -7,-18 -7,-32 0,-21 9,-32 46,-51 38,-21 64,-46 64,-62 0,-2 -23,-12 -51,-23 -57,-22 -131,-89 -159,-144 -84,-166 -6,-376 157,-420 23,-6 45,-16 49,-22 11,-18 8,-189 -4,-201 -7,-7 -32,-7 -83,0 -116,17 -109,36 -109,-272 0,-231 2,-265 16,-270 9,-3 130,-6 269,-6 298,0 283,-6 264,109 -7,38 -9,76 -6,84 4,11 26,14 99,12 52,-1 99,-5 106,-9 7,-4 17,-27 23,-51 13,-51 65,-115 123,-153 37,-24 50,-27 141,-27 85,0 107,4 147,23 49,24 138,106 138,127 0,21 41,65 60,65 12,0 26,-16 40,-46 20,-41 25,-45 54,-42 25,2 32,8 34,28 2,14 -5,36 -15,47 -10,12 -29,36 -42,53 -13,17 -37,38 -53,46 -25,13 -28,20 -28,62 0,107 -66,234 -154,298 -153,110 -314,123 -486,38 -92,-46 -209,-209 -225,-314 -13,-80 -13,-80 -131,-80 h -105 l 3,108 3,107 60,13 c 179,41 325,176 369,345 49,182 -47,399 -214,486 -54,28 -155,53 -184,45 -20,-5 -27,0 -41,25 -32,62 -142,130 -168,104 z m 276,-207 c 108,-28 182,-96 240,-221 15,-30 19,-64 19,-140 1,-90 -2,-105 -27,-155 -51,-99 -151,-176 -281,-215 -23,-7 -45,-10 -48,-7 -4,3 -6,47 -6,99 v 93 h 31 c 36,0 108,19 127,33 6,5 12,20 12,33 0,32 -35,39 -91,19 -80,-29 -73,-46 -79,211 -3,127 -4,238 -2,248 4,20 34,21 105,2 z m -171,-238 -1,-223 -29,1 c -37,2 -70,26 -108,79 -24,33 -29,52 -32,110 -3,59 0,78 22,121 14,28 38,63 53,79 31,31 85,67 91,60 3,-2 4,-105 4,-227 z m 818,-422 c 150,-36 248,-137 281,-287 6,-31 9,-62 5,-68 -5,-8 -81,-11 -247,-11 -269,0 -251,-7 -223,81 18,54 9,99 -19,99 -31,0 -67,-80 -67,-149 v -31 h -93 c -52,0 -96,2 -99,6 -9,8 18,92 49,153 32,65 113,151 165,175 42,20 130,43 168,45 14,0 50,-6 80,-13 z m -819,-293 c -3,-157 -14,-147 158,-142 l 116,4 3,-68 3,-67 -203,2 -203,3 -3,203 -2,203 67,-3 67,-3 z m 1081,-153 c -9,-39 -67,-97 -134,-134 -58,-32 -152,-36 -201,-9 -73,40 -133,119 -114,150 3,5 106,8 229,7 180,-1 222,-3 220,-14 z"
         id="path893" />
    </g>
  </g>
</svg>
