<?xml version="1.0" encoding="UTF-8" standalone="no"?>
<svg
   width="63.015656mm"
   height="62.917984mm"
   viewBox="0 0 63.015656 62.917984"
   version="1.1"
   id="svg8"
   inkscape:version="1.0.2-2 (e86c870879, 2021-01-15)"
   sodipodi:docname="borders_split.svg"
   xmlns:inkscape="http://www.inkscape.org/namespaces/inkscape"
   xmlns:sodipodi="http://sodipodi.sourceforge.net/DTD/sodipodi-0.dtd"
   xmlns="http://www.w3.org/2000/svg"
   xmlns:svg="http://www.w3.org/2000/svg"
   xmlns:rdf="http://www.w3.org/1999/02/22-rdf-syntax-ns#"
   xmlns:cc="http://creativecommons.org/ns#"
   xmlns:dc="http://purl.org/dc/elements/1.1/">
  <defs
     id="defs2" />
  <sodipodi:namedview
     id="base"
     pagecolor="#ffffff"
     bordercolor="#666666"
     borderopacity="1.0"
     inkscape:pageopacity="0.0"
     inkscape:pageshadow="2"
     inkscape:zoom="0.49497475"
     inkscape:cx="395.97979"
     inkscape:cy="190.91883"
     inkscape:document-units="mm"
     inkscape:current-layer="layer1"
     inkscape:document-rotation="0"
     showgrid="false"
     inkscape:window-width="1920"
     inkscape:window-height="1010"
     inkscape:window-x="1073"
     inkscape:window-y="512"
     inkscape:window-maximized="1"
     inkscape:showpageshadow="2"
     inkscape:pagecheckerboard="0"
     inkscape:deskcolor="#d1d1d1" />
  <metadata
     id="metadata5">
    <rdf:RDF>
      <cc:Work
         rdf:about="">
        <dc:format>image/svg+xml</dc:format>
        <dc:type
           rdf:resource="http://purl.org/dc/dcmitype/StillImage" />
        <dc:title />
      </cc:Work>
    </rdf:RDF>
  </metadata>
  <g
     inkscape:label="Layer 1"
     inkscape:groupmode="layer"
     id="layer1"
     transform="translate(5.338421,85.660237)">
    <g
       id="g1008"
       transform="translate(-18.89881,-7.5595238)">
      <path
         d="m 3756,20117 c -44,-76 -117,-146 -182,-176 -31,-14 -36,-46 -10,-70 12,-12 26,-21 32,-21 14,0 106,-89 144,-138 l 32,-43 -2,-217 c -2,-119 -2,-395 -1,-612 l 2,-395 29,-35 c 27,-33 31,-35 93,-35 55,0 69,4 91,24 35,33 51,92 36,137 -21,62 -113,107 -148,72 -15,-15 3,-48 27,-48 41,0 69,-78 39,-108 -21,-21 -65,-14 -87,14 -18,23 -21,41 -21,122 v 94 l 28,-7 c 71,-17 92,-17 134,4 62,31 83,64 83,131 0,48 -5,62 -32,97 -55,69 -160,82 -151,19 2,-14 15,-24 40,-31 67,-19 97,-85 60,-131 -30,-38 -57,-46 -96,-30 -54,23 -66,57 -66,190 0,63 4,118 10,121 5,3 30,-3 54,-15 55,-25 89,-25 141,-1 51,23 96,74 114,129 13,39 13,48 -4,95 -31,90 -105,150 -178,145 -39,-3 -42,-5 -42,-32 0,-27 4,-31 49,-42 73,-19 96,-46 96,-114 0,-47 -4,-60 -29,-87 -16,-18 -41,-35 -57,-39 -42,-11 -105,17 -129,56 -17,31 -19,54 -20,283 0,284 -6,261 97,364 40,42 72,65 93,69 17,3 144,4 282,2 l 251,-3 28,-28 c 24,-25 28,-36 28,-84 0,-52 -2,-58 -39,-89 -27,-24 -48,-34 -72,-34 -64,0 -123,49 -123,102 0,43 -35,66 -66,44 -24,-18 -12,-87 23,-133 45,-58 93,-83 163,-83 97,0 156,47 181,144 10,39 8,54 -9,105 -11,34 -18,62 -14,64 4,2 66,1 139,-2 155,-7 173,-17 173,-86 0,-54 -25,-78 -80,-78 -49,0 -63,11 -85,68 -18,47 -24,51 -56,35 -24,-13 -24,-41 0,-88 24,-47 46,-66 98,-87 40,-16 45,-16 88,1 28,10 57,31 73,52 23,30 26,42 24,113 l -2,79 h 75 c 121,0 186,-41 151,-95 -9,-13 -25,-26 -36,-30 -24,-8 -70,18 -70,39 0,7 -9,21 -20,31 -19,17 -22,17 -36,3 -26,-26 -9,-83 36,-118 60,-48 136,-36 184,27 27,37 26,111 -3,150 -45,61 -46,61 -691,62 -322,0 -590,0 -596,1 -21,0 -135,113 -169,166 -43,67 -64,69 -99,11 z m 84,-109 c 12,-18 42,-48 66,-66 47,-35 55,-57 25,-67 -11,-3 -42,-31 -70,-61 -27,-29 -56,-54 -64,-54 -8,0 -24,16 -36,35 -11,19 -41,49 -66,67 l -46,32 61,56 c 33,31 60,61 60,67 0,11 15,21 36,22 6,1 22,-14 34,-31 z"
         id="path835"
         transform="matrix(0.03527778,0,0,-0.03527778,-111.57894,633.04648)" />
      <path
         d="m 3995,19716 c -29,-21 -23,-114 10,-166 56,-88 174,-136 234,-94 21,15 22,21 16,72 -4,31 -14,67 -23,81 -27,44 -81,87 -130,104 -57,21 -82,21 -107,3 z m 137,-93 c 30,-27 60,-82 54,-98 -7,-18 -48,-11 -84,14 -28,19 -65,88 -56,102 9,15 63,3 86,-18 z"
         id="path851"
         transform="matrix(0.03527778,0,0,-0.03527778,-111.57894,633.04648)" />
    </g>
  </g>
</svg>
