<?xml version="1.0" encoding="UTF-8" standalone="no"?>
<svg
   width="55.974995mm"
   height="56.071182mm"
   viewBox="0 0 55.974995 56.071182"
   version="1.1"
   id="svg8"
   inkscape:version="1.0.2-2 (e86c870879, 2021-01-15)"
   sodipodi:docname="borders_split.svg"
   xmlns:inkscape="http://www.inkscape.org/namespaces/inkscape"
   xmlns:sodipodi="http://sodipodi.sourceforge.net/DTD/sodipodi-0.dtd"
   xmlns="http://www.w3.org/2000/svg"
   xmlns:svg="http://www.w3.org/2000/svg"
   xmlns:rdf="http://www.w3.org/1999/02/22-rdf-syntax-ns#"
   xmlns:cc="http://creativecommons.org/ns#"
   xmlns:dc="http://purl.org/dc/elements/1.1/">
  <defs
     id="defs2" />
  <sodipodi:namedview
     id="base"
     pagecolor="#ffffff"
     bordercolor="#666666"
     borderopacity="1.0"
     inkscape:pageopacity="0.0"
     inkscape:pageshadow="2"
     inkscape:zoom="0.49497475"
     inkscape:cx="395.97979"
     inkscape:cy="190.91883"
     inkscape:document-units="mm"
     inkscape:current-layer="layer1"
     inkscape:document-rotation="0"
     showgrid="false"
     inkscape:window-width="1920"
     inkscape:window-height="1010"
     inkscape:window-x="1073"
     inkscape:window-y="512"
     inkscape:window-maximized="1"
     inkscape:showpageshadow="2"
     inkscape:pagecheckerboard="0"
     inkscape:deskcolor="#d1d1d1" />
  <metadata
     id="metadata5">
    <rdf:RDF>
      <cc:Work
         rdf:about="">
        <dc:format>image/svg+xml</dc:format>
        <dc:type
           rdf:resource="http://purl.org/dc/dcmitype/StillImage" />
        <dc:title />
      </cc:Work>
    </rdf:RDF>
  </metadata>
  <g
     inkscape:label="Layer 1"
     inkscape:groupmode="layer"
     id="layer1"
     transform="translate(-15.132392,-5.7905244)">
    <g
       id="g1043"
       style="display:inline"
       transform="matrix(0.03527778,0,0,-0.03527778,-111.57894,633.04648)">
      <path
         d="m 4010,17762 c -63,-43 -76,-96 -41,-165 26,-50 39,-66 81,-92 67,-41 140,-56 270,-56 153,0 158,3 162,105 l 3,71 h 345 345 l 3,29 c 2,16 -2,32 -10,37 -7,5 -176,9 -375,9 -321,0 -363,-2 -378,-16 -13,-13 -16,-33 -13,-93 l 3,-76 -85,-3 c -120,-5 -190,18 -252,80 -27,26 -48,55 -48,66 0,22 40,62 62,62 26,0 48,-35 48,-77 0,-40 11,-53 45,-53 23,0 38,65 25,105 -24,74 -127,110 -190,67 z"
         id="path863" />
      <path
         d="m 3644,17402 c -67,-56 -70,-144 -6,-210 15,-17 81,-27 117,-18 21,5 26,12 23,34 -3,24 -8,27 -44,30 -28,2 -49,11 -65,28 l -23,24 21,28 c 11,15 32,28 46,30 38,5 108,-70 130,-138 21,-65 24,-240 5,-241 -7,0 -42,0 -78,0 -36,1 -70,-2 -77,-7 -9,-5 -12,-103 -13,-372 -1,-201 -1,-373 -1,-383 1,-14 8,-18 34,-15 l 32,3 2,344 c 1,189 4,346 8,349 3,3 37,6 75,6 48,1 73,5 79,15 13,21 23,155 16,224 -12,124 -52,206 -122,253 -60,39 -123,46 -159,16 z"
         id="path875" />
      <path
         d="m 4400,17398 c -60,-30 -92,-86 -87,-147 6,-57 35,-88 67,-71 15,8 19,17 14,28 -4,9 -9,33 -11,52 -4,29 1,41 23,63 36,36 77,36 115,-2 40,-40 42,-115 3,-160 -50,-60 -166,-67 -216,-13 -34,36 -58,113 -58,184 v 58 h -79 c -43,0 -98,3 -123,6 -70,10 -74,0 -68,-147 l 5,-124 75,-6 c 84,-6 134,-25 168,-62 79,-85 18,-237 -94,-237 -53,0 -87,20 -104,60 -14,34 -7,63 23,90 22,21 81,27 107,10 18,-11 40,5 40,30 0,30 -29,44 -89,45 -78,0 -121,-32 -145,-109 -17,-53 -17,-56 2,-98 22,-50 78,-93 135,-103 86,-16 175,39 217,133 22,49 22,84 -1,139 -17,42 -4,58 32,39 49,-25 78,-27 131,-9 66,24 119,77 140,142 15,47 15,56 1,99 -19,55 -35,76 -85,108 -47,30 -81,30 -138,2 z m -210,-108 c 0,-22 10,-60 22,-85 28,-58 16,-75 -33,-49 -19,10 -56,21 -84,24 l -50,5 -3,59 c -4,85 -4,86 78,86 h 70 z"
         id="path877" />
    </g>
  </g>
</svg>
