<?xml version="1.0" encoding="UTF-8" standalone="no"?>
<svg
   width="60.969429mm"
   height="61.318222mm"
   viewBox="0 0 60.969429 61.318222"
   version="1.1"
   id="svg8"
   inkscape:version="1.0.2-2 (e86c870879, 2021-01-15)"
   sodipodi:docname="borders_split.svg"
   xmlns:inkscape="http://www.inkscape.org/namespaces/inkscape"
   xmlns:sodipodi="http://sodipodi.sourceforge.net/DTD/sodipodi-0.dtd"
   xmlns="http://www.w3.org/2000/svg"
   xmlns:svg="http://www.w3.org/2000/svg"
   xmlns:rdf="http://www.w3.org/1999/02/22-rdf-syntax-ns#"
   xmlns:cc="http://creativecommons.org/ns#"
   xmlns:dc="http://purl.org/dc/elements/1.1/">
  <defs
     id="defs2" />
  <sodipodi:namedview
     id="base"
     pagecolor="#ffffff"
     bordercolor="#666666"
     borderopacity="1.0"
     inkscape:pageopacity="0.0"
     inkscape:pageshadow="2"
     inkscape:zoom="0.49497475"
     inkscape:cx="395.97979"
     inkscape:cy="190.91883"
     inkscape:document-units="mm"
     inkscape:current-layer="layer1"
     inkscape:document-rotation="0"
     showgrid="false"
     inkscape:window-width="1920"
     inkscape:window-height="1010"
     inkscape:window-x="1073"
     inkscape:window-y="512"
     inkscape:window-maximized="1"
     inkscape:showpageshadow="2"
     inkscape:pagecheckerboard="0"
     inkscape:deskcolor="#d1d1d1" />
  <metadata
     id="metadata5">
    <rdf:RDF>
      <cc:Work
         rdf:about="">
        <dc:format>image/svg+xml</dc:format>
        <dc:type
           rdf:resource="http://purl.org/dc/dcmitype/StillImage" />
        <dc:title />
      </cc:Work>
    </rdf:RDF>
  </metadata>
  <g
     inkscape:label="Layer 1"
     inkscape:groupmode="layer"
     id="layer1"
     transform="translate(-13.714505,-88.069893)">
    <g
       id="g1054"
       style="display:inline"
       transform="matrix(0.03527778,0,0,-0.03527778,-111.57894,633.04648)">
      <path
         d="m 4603,15443 c -597,-3 -633,-4 -642,-21 -6,-11 -7,-60 -2,-128 9,-120 5,-134 -40,-134 h -29 v 68 c 0,40 -5,73 -12,80 -7,7 -43,12 -93,12 -50,0 -86,-5 -93,-12 -8,-8 -12,-46 -12,-105 0,-106 -1,-105 95,-100 l 50,2 v -40 -40 h -135 -135 l -3,-635 c -1,-349 0,-645 3,-657 4,-16 13,-23 30,-23 13,0 27,4 30,10 3,5 6,286 5,624 l -1,615 93,3 c 51,2 99,1 107,-1 11,-3 12,-21 8,-85 -6,-86 3,-116 33,-116 29,0 34,17 35,115 v 90 l 53,-3 c 67,-5 84,8 82,62 -4,85 -10,80 84,73 99,-7 123,3 112,47 l -7,27 -89,-2 c -50,-2 -94,1 -99,7 -4,5 -5,50 -2,99 l 6,90 605,2 c 333,1 613,4 622,7 25,6 23,52 -1,66 -11,5 -21,9 -23,8 -2,-2 -287,-4 -635,-5 z m -778,-238 c 0,-43 -14,-52 -61,-41 -17,5 -24,13 -24,30 0,46 10,57 49,54 35,-3 36,-4 36,-43 z m 133,-107 c 17,-17 15,-44 -4,-62 -35,-36 -81,-3 -68,49 5,19 13,25 33,25 15,0 32,-5 39,-12 z"
         id="path879" />
      <path
         d="m 4118,15299 c -25,-14 -22,-36 5,-52 17,-11 89,-14 351,-13 324,1 329,1 343,22 12,19 12,24 -2,38 -15,14 -56,16 -348,16 -207,0 -339,-4 -349,-11 z"
         id="path891" />
      <path
         d="m 3698,14879 c -17,-9 -18,-37 -18,-354 v -345 l 24,-6 c 14,-3 30,-3 35,1 8,4 11,119 11,349 0,373 -2,385 -52,355 z"
         id="path897" />
    </g>
  </g>
</svg>
