<?xml version="1.0" encoding="UTF-8" standalone="no"?>
<svg
   width="61.245918mm"
   height="61.333675mm"
   viewBox="0 0 61.245918 61.333675"
   version="1.1"
   id="svg8"
   inkscape:version="1.0.2-2 (e86c870879, 2021-01-15)"
   sodipodi:docname="borders_split.svg"
   xmlns:inkscape="http://www.inkscape.org/namespaces/inkscape"
   xmlns:sodipodi="http://sodipodi.sourceforge.net/DTD/sodipodi-0.dtd"
   xmlns="http://www.w3.org/2000/svg"
   xmlns:svg="http://www.w3.org/2000/svg"
   xmlns:rdf="http://www.w3.org/1999/02/22-rdf-syntax-ns#"
   xmlns:cc="http://creativecommons.org/ns#"
   xmlns:dc="http://purl.org/dc/elements/1.1/">
  <defs
     id="defs2" />
  <sodipodi:namedview
     id="base"
     pagecolor="#ffffff"
     bordercolor="#666666"
     borderopacity="1.0"
     inkscape:pageopacity="0.0"
     inkscape:pageshadow="2"
     inkscape:zoom="0.49497475"
     inkscape:cx="395.97979"
     inkscape:cy="190.91883"
     inkscape:document-units="mm"
     inkscape:current-layer="layer1"
     inkscape:document-rotation="0"
     showgrid="false"
     inkscape:window-width="1920"
     inkscape:window-height="1010"
     inkscape:window-x="1073"
     inkscape:window-y="512"
     inkscape:window-maximized="1"
     inkscape:showpageshadow="2"
     inkscape:pagecheckerboard="0"
     inkscape:deskcolor="#d1d1d1" />
  <metadata
     id="metadata5">
    <rdf:RDF>
      <cc:Work
         rdf:about="">
        <dc:format>image/svg+xml</dc:format>
        <dc:type
           rdf:resource="http://purl.org/dc/dcmitype/StillImage" />
        <dc:title />
      </cc:Work>
    </rdf:RDF>
  </metadata>
  <g
     inkscape:label="Layer 1"
     inkscape:groupmode="layer"
     id="layer1"
     transform="translate(86.481318,83.495628)">
    <g
       id="g1014"
       transform="translate(-20.410714,-6.0476191)">
      <path
         d="m 1307,20122 c -13,-14 -17,-38 -17,-99 0,-97 9,-108 89,-108 h 56 l -4,-153 c -4,-159 1,-182 40,-182 34,0 41,35 38,189 l -4,146 h 156 c 158,0 189,7 189,40 0,33 -32,40 -189,40 h -156 l 3,58 c 5,80 -3,87 -103,87 -67,0 -85,-3 -98,-18 z m 128,-97 c 0,-34 -3,-40 -23,-43 -31,-5 -52,15 -52,48 0,35 8,42 45,38 28,-3 30,-6 30,-43 z"
         id="path839"
         style="fill:#000000;fill-opacity:1;stroke:none;stroke-width:28.3465;stroke-miterlimit:4;stroke-dasharray:none;stroke-opacity:1"
         transform="matrix(0.03527778,0,0,-0.03527778,-111.57894,633.04648)" />
      <path
         d="m 1960,20010 c -6,-11 -8,-35 -5,-53 6,-36 -16,-151 -36,-188 -22,-39 -51,-69 -67,-69 -12,0 -14,11 -9,55 5,47 3,57 -13,65 -30,16 -225,13 -239,-4 -8,-9 -11,-51 -9,-122 l 3,-109 60,-3 c 86,-4 93,-8 65,-37 -44,-47 -126,-78 -225,-84 l -90,-6 v -525 -525 l 33,-3 c 21,-2 32,1 32,10 1,7 1,230 0,496 0,265 3,482 7,482 181,9 278,61 334,178 12,23 26,42 32,42 25,0 106,66 134,109 31,48 61,142 65,201 l 3,35 h 488 c 523,0 516,-1 497,49 -7,21 -10,21 -528,24 -514,2 -521,2 -532,-18 z m -183,-253 c 10,-10 -7,-95 -22,-107 -7,-6 -33,-10 -57,-8 l -43,3 -5,48 c -6,51 -3,61 20,69 18,7 99,2 107,-5 z"
         id="path845"
         style="fill:#000000;fill-opacity:1;stroke:none;stroke-width:28.3465;stroke-miterlimit:4;stroke-dasharray:none;stroke-opacity:1"
         transform="matrix(0.03527778,0,0,-0.03527778,-111.57894,633.04648)" />
      <path
         d="m 2130,19866 c -13,-13 -13,-53 0,-61 6,-4 137,-7 292,-7 258,0 283,2 295,18 11,15 11,21 0,38 -13,20 -24,20 -296,21 -165,0 -286,-4 -291,-9 z"
         id="path849"
         style="fill:#000000;fill-opacity:1;stroke:none;stroke-width:28.3465;stroke-miterlimit:4;stroke-dasharray:none;stroke-opacity:1"
         transform="matrix(0.03527778,0,0,-0.03527778,-111.57894,633.04648)" />
      <path
         d="m 1555,19300 c -9,-14 -9,-576 0,-589 8,-15 42,-14 51,1 5,8 9,474 4,586 0,14 -46,16 -55,2 z"
         id="path857"
         style="fill:#000000;fill-opacity:1;stroke:none;stroke-width:28.3465;stroke-miterlimit:4;stroke-dasharray:none;stroke-opacity:1"
         transform="matrix(0.03527778,0,0,-0.03527778,-111.57894,633.04648)" />
    </g>
  </g>
</svg>
