<?xml version="1.0" encoding="UTF-8" standalone="no"?>
<svg
   width="61.378639mm"
   height="61.477859mm"
   viewBox="0 0 61.378639 61.477859"
   version="1.1"
   id="svg8"
   inkscape:version="1.0.2-2 (e86c870879, 2021-01-15)"
   sodipodi:docname="borders_split.svg"
   xmlns:inkscape="http://www.inkscape.org/namespaces/inkscape"
   xmlns:sodipodi="http://sodipodi.sourceforge.net/DTD/sodipodi-0.dtd"
   xmlns="http://www.w3.org/2000/svg"
   xmlns:svg="http://www.w3.org/2000/svg"
   xmlns:rdf="http://www.w3.org/1999/02/22-rdf-syntax-ns#"
   xmlns:cc="http://creativecommons.org/ns#"
   xmlns:dc="http://purl.org/dc/elements/1.1/">
  <defs
     id="defs2" />
  <sodipodi:namedview
     id="base"
     pagecolor="#ffffff"
     bordercolor="#666666"
     borderopacity="1.0"
     inkscape:pageopacity="0.0"
     inkscape:pageshadow="2"
     inkscape:zoom="0.49497475"
     inkscape:cx="395.97979"
     inkscape:cy="190.91883"
     inkscape:document-units="mm"
     inkscape:current-layer="layer1"
     inkscape:document-rotation="0"
     showgrid="false"
     inkscape:window-width="1920"
     inkscape:window-height="1010"
     inkscape:window-x="1073"
     inkscape:window-y="512"
     inkscape:window-maximized="1"
     inkscape:showpageshadow="2"
     inkscape:pagecheckerboard="0"
     inkscape:deskcolor="#d1d1d1" />
  <metadata
     id="metadata5">
    <rdf:RDF>
      <cc:Work
         rdf:about="">
        <dc:format>image/svg+xml</dc:format>
        <dc:type
           rdf:resource="http://purl.org/dc/dcmitype/StillImage" />
        <dc:title />
      </cc:Work>
    </rdf:RDF>
  </metadata>
  <g
     inkscape:label="Layer 1"
     inkscape:groupmode="layer"
     id="layer1"
     transform="translate(66.421141,-173.86096)">
    <g
       id="g1190"
       style="display:inline"
       transform="matrix(0.03527778,0,0,-0.03527778,-111.57894,633.04648)">
      <path
         d="m 1695,13014 c -73,-18 -113,-62 -122,-135 -5,-43 -13,-58 -51,-95 -32,-32 -52,-44 -74,-44 -56,0 -119,-43 -149,-102 -46,-89 -7,-181 104,-247 40,-25 57,-62 37,-86 -16,-19 -51,-19 -76,0 -27,20 -51,18 -64,-5 -27,-51 64,-96 148,-74 33,9 76,87 68,125 -7,36 -42,89 -59,89 -7,0 -29,15 -51,33 -33,29 -39,40 -43,84 -5,48 -3,55 26,83 46,47 65,38 71,-35 6,-71 26,-112 76,-152 l 36,-29 -1,-389 -2,-390 -74,-75 c -97,-97 -98,-110 -12,-197 34,-35 75,-73 90,-84 27,-20 29,-20 55,-3 15,9 57,48 95,86 90,91 90,102 -8,195 l -75,71 2,383 3,383 56,2 c 115,4 186,86 201,233 l 3,25 380,-2 380,-2 67,-69 c 101,-103 103,-103 216,9 98,96 97,105 -10,210 -51,50 -90,80 -103,80 -14,0 -48,-27 -93,-74 l -72,-74 -400,-3 -399,-4 -46,47 c -46,46 -84,61 -155,63 -40,0 -40,45 0,79 51,42 111,32 162,-29 10,-11 17,-25 18,-31 0,-5 13,-23 29,-38 58,-56 158,-41 195,29 19,35 19,36 0,93 -18,52 -22,57 -49,57 -27,0 -30,-3 -29,-30 1,-16 4,-43 8,-60 5,-20 2,-36 -7,-50 -13,-17 -18,-18 -41,-7 -15,6 -40,34 -57,61 -17,26 -43,57 -58,68 -27,21 -109,35 -146,27 z m 1200,-260 c 25,-25 45,-49 45,-53 0,-4 -24,-31 -54,-60 l -55,-54 -55,54 -56,55 48,51 c 26,28 55,51 65,52 10,1 38,-20 62,-45 z m -1129,-3 c 44,-35 64,-71 64,-119 0,-99 -64,-162 -163,-162 -55,0 -60,2 -102,45 -44,43 -45,46 -45,107 0,56 4,68 31,102 40,48 61,56 130,53 40,-2 64,-10 85,-26 z m -102,-1230 c 26,-29 43,-55 40,-63 -4,-7 -29,-33 -56,-57 l -49,-45 -54,54 -54,54 47,52 c 26,28 54,52 63,53 9,1 37,-21 63,-48 z"
         id="path905" />
      <path
         d="m 1645,12718 c -50,-27 -65,-50 -65,-98 0,-61 28,-90 89,-90 56,0 78,13 96,58 15,33 14,40 0,73 -11,23 -30,42 -51,53 -40,19 -43,19 -69,4 z m 65,-77 c 7,-15 5,-24 -8,-41 -32,-40 -85,-1 -60,44 12,22 55,20 68,-3 z"
         id="path907" />
    </g>
  </g>
</svg>
