<?xml version="1.0" encoding="UTF-8" standalone="no"?>
<svg
   width="53.970669mm"
   height="54.087673mm"
   viewBox="0 0 53.970669 54.087673"
   version="1.1"
   id="svg8"
   inkscape:version="1.0.2-2 (e86c870879, 2021-01-15)"
   sodipodi:docname="borders_split.svg"
   xmlns:inkscape="http://www.inkscape.org/namespaces/inkscape"
   xmlns:sodipodi="http://sodipodi.sourceforge.net/DTD/sodipodi-0.dtd"
   xmlns="http://www.w3.org/2000/svg"
   xmlns:svg="http://www.w3.org/2000/svg"
   xmlns:rdf="http://www.w3.org/1999/02/22-rdf-syntax-ns#"
   xmlns:cc="http://creativecommons.org/ns#"
   xmlns:dc="http://purl.org/dc/elements/1.1/">
  <defs
     id="defs2" />
  <sodipodi:namedview
     id="base"
     pagecolor="#ffffff"
     bordercolor="#666666"
     borderopacity="1.0"
     inkscape:pageopacity="0.0"
     inkscape:pageshadow="2"
     inkscape:zoom="0.49497475"
     inkscape:cx="395.97979"
     inkscape:cy="190.91883"
     inkscape:document-units="mm"
     inkscape:current-layer="layer1"
     inkscape:document-rotation="0"
     showgrid="false"
     inkscape:window-width="1920"
     inkscape:window-height="1010"
     inkscape:window-x="1073"
     inkscape:window-y="512"
     inkscape:window-maximized="1"
     inkscape:showpageshadow="2"
     inkscape:pagecheckerboard="0"
     inkscape:deskcolor="#d1d1d1" />
  <metadata
     id="metadata5">
    <rdf:RDF>
      <cc:Work
         rdf:about="">
        <dc:format>image/svg+xml</dc:format>
        <dc:type
           rdf:resource="http://purl.org/dc/dcmitype/StillImage" />
        <dc:title />
      </cc:Work>
    </rdf:RDF>
  </metadata>
  <g
     inkscape:label="Layer 1"
     inkscape:groupmode="layer"
     id="layer1"
     transform="translate(-180.52108,-9.9282145)">
    <g
       id="g1035"
       style="display:inline"
       transform="matrix(0.03527778,0,0,-0.03527778,-111.57894,633.04648)">
      <path
         d="m 8294,17657 c -12,-7 -14,-113 -14,-722 0,-458 4,-723 10,-740 14,-37 49,-64 83,-65 22,0 49,20 124,93 206,197 260,261 313,372 31,64 34,78 34,170 1,85 -2,105 -20,132 -23,36 -53,62 -101,87 -87,44 -205,-13 -253,-122 -24,-54 -25,-83 -4,-123 23,-46 50,-68 98,-81 53,-14 94,0 132,45 30,35 30,93 1,111 -23,14 -47,-14 -47,-55 0,-41 -20,-52 -66,-36 -26,9 -42,22 -48,39 -13,36 0,91 29,124 22,26 31,29 86,29 59,0 62,-1 95,-40 31,-36 34,-46 34,-105 0,-38 -6,-77 -15,-94 -8,-15 -15,-33 -15,-40 -1,-31 -82,-134 -211,-268 -132,-138 -171,-167 -180,-135 -2,6 -2,316 1,687 l 5,675 h 680 680 l 3,-22 c 2,-15 -11,-34 -44,-65 -26,-24 -90,-84 -143,-135 -114,-109 -128,-120 -206,-159 -70,-36 -156,-50 -214,-34 -50,13 -101,71 -101,115 0,62 65,125 129,125 94,0 113,-109 21,-122 -19,-2 -26,-10 -28,-31 -4,-34 17,-44 67,-29 54,17 85,64 85,130 0,45 -4,57 -30,83 -55,55 -173,53 -235,-4 -57,-53 -73,-85 -73,-152 0,-141 111,-215 280,-186 90,15 161,45 233,99 75,57 321,301 332,329 16,42 10,78 -15,102 l -24,22 -726,2 c -400,1 -734,-2 -742,-6 z"
         id="path865" />
      <path
         d="m 8504,17445 c -14,-10 -15,-19 -5,-64 6,-28 11,-79 11,-112 0,-33 7,-73 15,-89 15,-30 46,-41 161,-60 28,-4 61,-13 72,-19 11,-6 37,-11 56,-11 47,0 61,25 41,74 -8,19 -15,46 -15,58 0,13 -7,41 -15,63 -8,22 -14,54 -15,71 0,51 -18,64 -105,79 -124,20 -183,23 -201,10 z m 181,-82 c 53,-8 65,-19 65,-59 0,-18 7,-49 16,-68 19,-39 13,-70 -13,-63 -123,33 -156,44 -163,57 -4,8 -11,46 -15,84 l -8,69 39,-7 c 22,-4 57,-10 79,-13 z"
         id="path873" />
    </g>
  </g>
</svg>
