<?xml version="1.0" encoding="UTF-8" standalone="no"?>
<svg
   width="60.787308mm"
   height="61.352688mm"
   viewBox="0 0 60.787308 61.352688"
   version="1.1"
   id="svg8"
   inkscape:version="1.0.2-2 (e86c870879, 2021-01-15)"
   sodipodi:docname="borders_split.svg"
   xmlns:inkscape="http://www.inkscape.org/namespaces/inkscape"
   xmlns:sodipodi="http://sodipodi.sourceforge.net/DTD/sodipodi-0.dtd"
   xmlns="http://www.w3.org/2000/svg"
   xmlns:svg="http://www.w3.org/2000/svg"
   xmlns:rdf="http://www.w3.org/1999/02/22-rdf-syntax-ns#"
   xmlns:cc="http://creativecommons.org/ns#"
   xmlns:dc="http://purl.org/dc/elements/1.1/">
  <defs
     id="defs2" />
  <sodipodi:namedview
     id="base"
     pagecolor="#ffffff"
     bordercolor="#666666"
     borderopacity="1.0"
     inkscape:pageopacity="0.0"
     inkscape:pageshadow="2"
     inkscape:zoom="0.49497475"
     inkscape:cx="395.97979"
     inkscape:cy="190.91883"
     inkscape:document-units="mm"
     inkscape:current-layer="layer1"
     inkscape:document-rotation="0"
     showgrid="false"
     inkscape:window-width="1920"
     inkscape:window-height="1010"
     inkscape:window-x="1073"
     inkscape:window-y="512"
     inkscape:window-maximized="1"
     inkscape:showpageshadow="2"
     inkscape:pagecheckerboard="0"
     inkscape:deskcolor="#d1d1d1" />
  <metadata
     id="metadata5">
    <rdf:RDF>
      <cc:Work
         rdf:about="">
        <dc:format>image/svg+xml</dc:format>
        <dc:type
           rdf:resource="http://purl.org/dc/dcmitype/StillImage" />
        <dc:title />
      </cc:Work>
    </rdf:RDF>
  </metadata>
  <g
     inkscape:label="Layer 1"
     inkscape:groupmode="layer"
     id="layer1"
     transform="translate(-178.97824,-91.532557)">
    <g
       id="g1062"
       style="display:inline"
       transform="matrix(0.03527778,0,0,-0.03527778,-111.57894,633.04648)">
      <path
         d="m 8250,15340 c -24,-15 -15,-123 15,-170 31,-49 85,-90 118,-90 14,0 29,-6 34,-12 9,-15 5,-48 -8,-64 -5,-6 -20,-31 -33,-55 -13,-24 -33,-61 -45,-83 -68,-119 -79,-224 -33,-291 35,-50 92,-89 164,-110 54,-17 59,-17 107,1 62,22 104,61 131,122 66,150 -42,311 -194,287 -78,-13 -111,-54 -62,-76 17,-8 29,-8 44,0 55,29 130,-11 158,-84 16,-43 16,-47 -1,-85 -28,-62 -72,-90 -140,-90 -62,0 -98,16 -130,58 -16,22 -20,41 -19,97 1,61 7,81 42,150 22,44 57,115 78,158 21,42 44,77 52,77 8,0 26,6 40,14 15,8 34,17 42,20 8,4 29,15 45,26 32,20 85,47 148,74 21,9 62,16 92,16 62,0 103,-27 135,-91 25,-48 25,-80 0,-128 -30,-60 -63,-81 -126,-81 -46,0 -57,4 -89,34 -36,34 -36,35 -33,106 2,53 -1,73 -12,80 -23,14 -46,-6 -60,-55 -16,-57 -8,-107 24,-154 38,-55 86,-76 172,-76 61,1 78,5 112,28 22,14 53,43 69,63 25,34 28,45 28,113 -1,71 -3,80 -37,131 -85,126 -181,140 -353,54 -38,-20 -83,-44 -100,-54 -63,-39 -103,-58 -109,-53 -3,4 -6,15 -6,25 0,29 -37,94 -66,117 -63,50 -157,75 -194,51 z m 163,-121 c 22,-25 37,-52 37,-67 0,-22 -3,-24 -31,-18 -17,3 -42,15 -56,26 -31,24 -66,87 -57,102 13,21 69,-2 107,-43 z"
         id="path887" />
      <path
         d="m 9735,15318 c -22,-17 -56,-47 -77,-66 l -36,-34 -18,21 c -18,20 -27,21 -240,21 -208,0 -222,-1 -227,-19 -2,-10 0,-26 5,-36 9,-15 25,-17 153,-14 79,2 147,1 150,-3 4,-4 -13,-30 -38,-58 -56,-63 -86,-122 -94,-190 -3,-28 -12,-57 -19,-65 -7,-7 -44,-18 -81,-24 -37,-7 -93,-18 -123,-26 -68,-17 -171,-36 -230,-44 l -45,-6 -17,-75 c -9,-41 -24,-111 -33,-155 -9,-44 -23,-106 -31,-137 -8,-32 -14,-70 -14,-86 0,-39 -17,-52 -67,-52 -57,0 -163,-52 -208,-102 -19,-21 -39,-38 -45,-38 -6,0 -10,56 -10,148 0,152 -5,172 -41,172 -9,0 -20,-7 -23,-16 -9,-25 -7,-437 3,-453 10,-15 61,-8 61,10 0,24 83,119 132,151 62,40 147,69 201,66 20,-1 40,2 45,6 7,8 25,88 41,190 6,32 14,80 20,105 6,25 15,71 20,101 17,97 25,110 70,110 22,0 52,5 68,11 15,6 55,14 88,19 115,18 190,33 245,49 l 55,16 6,75 c 9,116 64,204 177,284 56,39 76,44 89,22 4,-8 37,-37 72,-64 l 65,-50 35,24 c 20,13 57,36 84,52 55,31 72,68 41,89 -40,30 -157,103 -163,103 -4,0 -24,-14 -46,-32 z m 104,-82 22,-24 -34,-21 c -41,-25 -46,-25 -74,-2 -27,23 -28,29 -6,53 23,25 65,23 92,-6 z"
         id="path889" />
      <path
         d="m 8295,13885 c -22,-30 -43,-55 -47,-55 -19,0 -6,-65 20,-99 15,-20 36,-52 46,-71 37,-66 54,-66 97,3 90,142 86,131 58,171 -50,69 -88,106 -111,106 -16,-1 -35,-18 -63,-55 z m 99,-60 c 15,-22 15,-29 2,-60 -17,-40 -38,-45 -60,-13 -21,29 -20,57 1,80 22,25 38,23 57,-7 z"
         id="path899" />
    </g>
  </g>
</svg>
