<?xml version="1.0" encoding="UTF-8" standalone="no"?>
<svg
   width="57.149956mm"
   height="56.856659mm"
   viewBox="0 0 57.149956 56.856659"
   version="1.1"
   id="svg8"
   inkscape:version="1.0.2-2 (e86c870879, 2021-01-15)"
   sodipodi:docname="borders_split.svg"
   xmlns:inkscape="http://www.inkscape.org/namespaces/inkscape"
   xmlns:sodipodi="http://sodipodi.sourceforge.net/DTD/sodipodi-0.dtd"
   xmlns="http://www.w3.org/2000/svg"
   xmlns:svg="http://www.w3.org/2000/svg"
   xmlns:rdf="http://www.w3.org/1999/02/22-rdf-syntax-ns#"
   xmlns:cc="http://creativecommons.org/ns#"
   xmlns:dc="http://purl.org/dc/elements/1.1/">
  <defs
     id="defs2" />
  <sodipodi:namedview
     id="base"
     pagecolor="#ffffff"
     bordercolor="#666666"
     borderopacity="1.0"
     inkscape:pageopacity="0.0"
     inkscape:pageshadow="2"
     inkscape:zoom="0.49497475"
     inkscape:cx="395.97979"
     inkscape:cy="190.91883"
     inkscape:document-units="mm"
     inkscape:current-layer="layer1"
     inkscape:document-rotation="0"
     showgrid="false"
     inkscape:window-width="1920"
     inkscape:window-height="1010"
     inkscape:window-x="1073"
     inkscape:window-y="512"
     inkscape:window-maximized="1"
     inkscape:showpageshadow="2"
     inkscape:pagecheckerboard="0"
     inkscape:deskcolor="#d1d1d1" />
  <metadata
     id="metadata5">
    <rdf:RDF>
      <cc:Work
         rdf:about="">
        <dc:format>image/svg+xml</dc:format>
        <dc:type
           rdf:resource="http://purl.org/dc/dcmitype/StillImage" />
        <dc:title />
      </cc:Work>
    </rdf:RDF>
  </metadata>
  <g
     inkscape:label="Layer 1"
     inkscape:groupmode="layer"
     id="layer1"
     transform="translate(-260.60164,-10.80782)">
    <g
       id="g1031"
       style="display:inline"
       transform="matrix(0.03527778,0,0,-0.03527778,-111.57894,633.04648)">
      <path
         d="m 11592,17633 -474,-3 2,-213 c 3,-260 5,-239 -22,-235 -23,3 -23,4 -24,189 -1,120 -5,193 -13,207 -11,22 -16,22 -226,22 -202,0 -215,-1 -225,-19 -11,-21 -14,-399 -4,-438 6,-23 7,-23 205,-23 200,0 224,-4 198,-36 -10,-12 -46,-15 -221,-13 -152,1 -212,-2 -223,-11 -13,-11 -15,-83 -15,-515 v -502 l 24,-11 c 18,-8 28,-7 42,2 16,13 17,43 15,488 -2,453 -2,476 16,482 10,4 104,6 210,5 140,-1 196,1 207,10 8,7 16,31 18,54 l 3,42 47,3 48,3 2,222 3,222 480,1 c 264,1 486,2 493,3 18,2 15,58 -4,65 -9,3 -32,5 -52,4 -20,-2 -250,-4 -510,-5 z m -589,-123 c 9,-14 14,-62 16,-169 2,-141 1,-150 -18,-160 -22,-12 -174,-15 -270,-5 l -61,7 v 167 c 0,92 3,170 7,173 3,4 75,7 159,7 141,0 154,-2 167,-20 z"
         id="path867" />
      <path
         d="m 10744,17472 c -28,-18 -36,-55 -30,-135 8,-110 15,-117 128,-117 120,0 128,8 128,130 0,122 -8,130 -127,130 -49,0 -93,-4 -99,-8 z m 161,-122 v -65 h -60 -60 l -3,54 c -5,79 -2,82 65,79 l 58,-3 z"
         id="path869" />
      <path
         d="m 11271,17496 c -8,-9 -12,-97 -13,-280 0,-183 -4,-269 -12,-274 -6,-3 -130,-8 -275,-9 -265,-3 -281,-5 -281,-38 0,-35 12,-37 314,-36 213,0 302,3 312,12 11,9 14,65 14,315 0,290 -1,304 -19,314 -25,13 -26,13 -40,-4 z"
         id="path871" />
    </g>
  </g>
</svg>
