<?xml version="1.0" encoding="UTF-8" standalone="no"?>
<svg
   width="60.192352mm"
   height="60.311504mm"
   viewBox="0 0 60.192352 60.311504"
   version="1.1"
   id="svg8"
   inkscape:version="1.0.2-2 (e86c870879, 2021-01-15)"
   sodipodi:docname="borders_split.svg"
   xmlns:inkscape="http://www.inkscape.org/namespaces/inkscape"
   xmlns:sodipodi="http://sodipodi.sourceforge.net/DTD/sodipodi-0.dtd"
   xmlns="http://www.w3.org/2000/svg"
   xmlns:svg="http://www.w3.org/2000/svg"
   xmlns:rdf="http://www.w3.org/1999/02/22-rdf-syntax-ns#"
   xmlns:cc="http://creativecommons.org/ns#"
   xmlns:dc="http://purl.org/dc/elements/1.1/">
  <defs
     id="defs2" />
  <sodipodi:namedview
     id="base"
     pagecolor="#ffffff"
     bordercolor="#666666"
     borderopacity="1.0"
     inkscape:pageopacity="0.0"
     inkscape:pageshadow="2"
     inkscape:zoom="0.49497475"
     inkscape:cx="395.97979"
     inkscape:cy="190.91883"
     inkscape:document-units="mm"
     inkscape:current-layer="layer1"
     inkscape:document-rotation="0"
     showgrid="false"
     inkscape:window-width="1920"
     inkscape:window-height="1010"
     inkscape:window-x="1073"
     inkscape:window-y="512"
     inkscape:window-maximized="1"
     inkscape:showpageshadow="2"
     inkscape:pagecheckerboard="0"
     inkscape:deskcolor="#d1d1d1" />
  <metadata
     id="metadata5">
    <rdf:RDF>
      <cc:Work
         rdf:about="">
        <dc:format>image/svg+xml</dc:format>
        <dc:type
           rdf:resource="http://purl.org/dc/dcmitype/StillImage" />
        <dc:title />
      </cc:Work>
    </rdf:RDF>
  </metadata>
  <g
     inkscape:label="Layer 1"
     inkscape:groupmode="layer"
     id="layer1"
     transform="translate(-259.32318,-89.778774)">
    <g
       id="g1067"
       style="fill:#000000;stroke:none"
       transform="matrix(0.03527778,0,0,-0.03527778,-111.57894,633.04647)">
      <path
         d="m 10521,15386 c -14,-17 -7,-85 15,-154 8,-23 14,-56 14,-73 0,-18 9,-39 23,-53 20,-20 36,-24 133,-29 133,-7 139,-4 124,72 -5,30 -10,77 -10,105 -1,60 -25,96 -64,96 -14,0 -45,6 -68,14 -24,8 -62,17 -85,20 -23,3 -48,8 -56,11 -7,3 -19,-1 -26,-9 z m 167,-94 c 24,-5 48,-14 54,-20 5,-5 12,-37 15,-71 6,-59 5,-61 -18,-61 -35,1 -100,17 -111,28 -6,6 -14,28 -18,49 -4,21 -11,51 -15,67 -9,32 -15,31 93,8 z"
         id="path883" />
      <path
         d="m 11191,15389 c -122,-24 -202,-101 -235,-225 -14,-54 -14,-64 1,-119 14,-50 27,-70 74,-117 52,-51 63,-57 113,-63 74,-10 115,-1 165,35 56,41 81,97 81,181 0,99 -26,141 -75,123 -13,-5 -16,-14 -11,-43 18,-98 18,-111 1,-149 -47,-105 -185,-108 -252,-5 -32,48 -33,161 -1,206 81,119 241,144 348,55 66,-55 101,-150 104,-283 l 1,-90 344,-3 c 343,-2 371,0 371,32 -1,38 -9,39 -331,40 l -314,1 -6,85 c -9,137 -57,230 -151,293 -45,29 -147,62 -177,56 -3,-1 -26,-5 -50,-10 z"
         id="path885" />
      <path
         d="m 10695,14934 c -63,-31 -115,-82 -151,-148 -24,-44 -28,-62 -29,-137 0,-66 4,-94 20,-125 22,-42 95,-121 134,-143 54,-30 136,-51 203,-51 h 69 l -1,-310 c -1,-170 1,-314 5,-320 9,-14 52,-13 61,2 10,17 4,681 -6,692 -5,5 -42,8 -82,7 -160,-4 -268,51 -319,162 -54,119 21,281 143,309 74,16 131,2 183,-46 43,-40 45,-45 45,-96 0,-73 -28,-114 -93,-136 -37,-12 -54,-13 -79,-5 -17,6 -46,11 -64,11 -31,0 -34,-3 -34,-30 0,-25 6,-32 36,-45 88,-37 207,-7 265,66 27,34 33,51 37,109 6,83 -19,144 -77,190 -93,75 -175,89 -266,44 z"
         id="path895" />
    </g>
  </g>
</svg>
