<?xml version="1.0" encoding="UTF-8" standalone="no"?>
<svg
   width="53.531883mm"
   height="53.122112mm"
   viewBox="0 0 53.531883 53.122112"
   version="1.1"
   id="svg8"
   inkscape:version="1.0.2-2 (e86c870879, 2021-01-15)"
   sodipodi:docname="borders_split.svg"
   xmlns:inkscape="http://www.inkscape.org/namespaces/inkscape"
   xmlns:sodipodi="http://sodipodi.sourceforge.net/DTD/sodipodi-0.dtd"
   xmlns="http://www.w3.org/2000/svg"
   xmlns:svg="http://www.w3.org/2000/svg"
   xmlns:rdf="http://www.w3.org/1999/02/22-rdf-syntax-ns#"
   xmlns:cc="http://creativecommons.org/ns#"
   xmlns:dc="http://purl.org/dc/elements/1.1/">
  <defs
     id="defs2" />
  <sodipodi:namedview
     id="base"
     pagecolor="#ffffff"
     bordercolor="#666666"
     borderopacity="1.0"
     inkscape:pageopacity="0.0"
     inkscape:pageshadow="2"
     inkscape:zoom="0.49497475"
     inkscape:cx="395.97979"
     inkscape:cy="190.91883"
     inkscape:document-units="mm"
     inkscape:current-layer="layer1"
     inkscape:document-rotation="0"
     showgrid="false"
     inkscape:window-width="1920"
     inkscape:window-height="1010"
     inkscape:window-x="1073"
     inkscape:window-y="512"
     inkscape:window-maximized="1"
     inkscape:showpageshadow="2"
     inkscape:pagecheckerboard="0"
     inkscape:deskcolor="#d1d1d1" />
  <metadata
     id="metadata5">
    <rdf:RDF>
      <cc:Work
         rdf:about="">
        <dc:format>image/svg+xml</dc:format>
        <dc:type
           rdf:resource="http://purl.org/dc/dcmitype/StillImage" />
        <dc:title />
      </cc:Work>
    </rdf:RDF>
  </metadata>
  <g
     inkscape:label="Layer 1"
     inkscape:groupmode="layer"
     id="layer1"
     transform="translate(67.02743,-88.741756)">
    <g
       id="g1049"
       style="display:inline"
       transform="matrix(0.03527778,0,0,-0.03527778,-111.57894,633.04648)">
      <path
         d="m 2700,15409 c -28,-22 -164,-89 -183,-89 -6,0 -32,-8 -57,-17 -58,-21 -392,-24 -455,-4 -22,7 -58,16 -80,21 -46,9 -96,26 -143,48 -22,11 -36,12 -43,5 -6,-6 -11,-59 -12,-119 l -3,-109 -52,-3 c -57,-3 -59,-1 -40,57 29,90 42,122 54,132 17,14 18,45 3,55 -7,4 -89,9 -184,11 -155,4 -173,3 -189,-13 -17,-16 -18,-35 -13,-198 5,-169 6,-181 26,-194 l 21,-14 -21,-17 c -19,-15 -20,-19 -6,-46 15,-29 29,-75 63,-205 25,-96 25,-392 0,-475 -23,-77 -52,-148 -76,-188 -50,-82 -55,-96 -39,-113 10,-10 25,-13 41,-9 19,5 35,27 70,98 66,135 108,302 108,430 0,110 -44,349 -76,409 -24,46 -11,58 64,55 l 67,-2 6,-125 c 4,-69 12,-154 18,-190 6,-36 11,-71 11,-78 0,-9 11,-12 33,-10 l 32,3 -2,60 c -1,33 -7,94 -14,135 -7,41 -13,104 -13,140 l -1,65 45,3 c 59,4 68,-9 60,-90 -7,-69 4,-108 30,-108 32,0 41,25 39,105 -1,42 2,80 7,85 5,4 37,4 72,-2 55,-8 66,-7 83,8 46,42 10,69 -90,69 h -76 v 45 45 l 79,-2 c 44,-1 100,-7 125,-12 25,-6 80,-12 121,-13 72,-3 75,-2 78,21 2,13 0,27 -5,31 -13,13 -156,33 -283,39 l -115,6 -1,62 c -2,81 5,91 48,71 70,-34 304,-78 413,-78 115,0 303,44 414,98 111,53 148,97 102,122 -27,14 -32,13 -61,-11 z m -1097,-96 c 4,-3 1,-13 -6,-22 -8,-9 -20,-43 -27,-76 -7,-33 -17,-65 -22,-72 -5,-6 -32,-17 -61,-23 -29,-7 -62,-19 -75,-27 -12,-7 -27,-11 -32,-8 -6,3 -10,57 -10,121 v 114 h 113 c 63,0 117,-3 120,-7 z m 122,-283 v -45 l -49,-7 c -28,-4 -53,-5 -58,-2 -4,3 -8,28 -8,55 v 50 l 58,-3 57,-3 z m -177,-8 3,-42 h -95 c -79,0 -96,3 -96,15 0,9 12,20 28,26 15,5 34,13 42,16 28,12 95,30 105,28 6,-1 11,-20 13,-43 z"
         id="path881" />
    </g>
  </g>
</svg>
