<?xml version="1.0" encoding="UTF-8" standalone="no"?>
<svg
   width="52.116096mm"
   height="52.797138mm"
   viewBox="0 0 52.116096 52.797138"
   version="1.1"
   id="svg8"
   inkscape:version="1.0.2-2 (e86c870879, 2021-01-15)"
   sodipodi:docname="borders_split.svg"
   xmlns:inkscape="http://www.inkscape.org/namespaces/inkscape"
   xmlns:sodipodi="http://sodipodi.sourceforge.net/DTD/sodipodi-0.dtd"
   xmlns="http://www.w3.org/2000/svg"
   xmlns:svg="http://www.w3.org/2000/svg"
   xmlns:rdf="http://www.w3.org/1999/02/22-rdf-syntax-ns#"
   xmlns:cc="http://creativecommons.org/ns#"
   xmlns:dc="http://purl.org/dc/elements/1.1/">
  <defs
     id="defs2" />
  <sodipodi:namedview
     id="base"
     pagecolor="#ffffff"
     bordercolor="#666666"
     borderopacity="1.0"
     inkscape:pageopacity="0.0"
     inkscape:pageshadow="2"
     inkscape:zoom="0.49497475"
     inkscape:cx="395.97979"
     inkscape:cy="190.91883"
     inkscape:document-units="mm"
     inkscape:current-layer="layer1"
     inkscape:document-rotation="0"
     showgrid="false"
     inkscape:window-width="1920"
     inkscape:window-height="1010"
     inkscape:window-x="1073"
     inkscape:window-y="512"
     inkscape:window-maximized="1"
     inkscape:showpageshadow="2"
     inkscape:pagecheckerboard="0"
     inkscape:deskcolor="#d1d1d1" />
  <metadata
     id="metadata5">
    <rdf:RDF>
      <cc:Work
         rdf:about="">
        <dc:format>image/svg+xml</dc:format>
        <dc:type
           rdf:resource="http://purl.org/dc/dcmitype/StillImage" />
        <dc:title />
      </cc:Work>
    </rdf:RDF>
  </metadata>
  <g
     inkscape:label="Layer 1"
     inkscape:groupmode="layer"
     id="layer1"
     transform="translate(-258.53495,-173.76843)">
    <g
       id="g1073"
       style="display:inline"
       transform="matrix(0.03527778,0,0,-0.03527778,-111.57894,633.04648)">
      <path
         d="m 11220,12999 c -25,-12 -58,-27 -75,-34 -16,-7 -47,-20 -67,-29 -21,-9 -52,-23 -70,-31 -18,-7 -54,-23 -80,-35 -39,-18 -63,-21 -144,-19 -91,2 -98,1 -116,-21 -17,-21 -19,-34 -13,-120 7,-91 6,-100 -19,-156 -39,-85 -56,-125 -70,-159 -7,-16 -27,-59 -44,-95 -39,-79 -40,-102 -7,-120 22,-12 26,-11 44,11 11,13 20,30 21,37 0,8 7,30 16,50 8,21 21,51 28,67 8,17 21,50 31,75 9,25 23,60 31,78 8,18 14,39 14,46 0,23 36,46 72,46 19,0 37,-3 41,-6 3,-3 -9,-26 -26,-51 -30,-41 -32,-51 -32,-127 0,-96 10,-120 95,-236 96,-130 127,-203 137,-324 8,-101 -29,-180 -105,-227 -30,-19 -52,-23 -117,-23 -90,-1 -126,16 -164,78 -27,43 -26,90 4,146 45,84 47,92 32,108 -25,24 -53,5 -87,-60 -63,-118 -39,-241 61,-304 61,-38 135,-51 211,-35 99,19 196,95 214,165 3,14 10,29 15,32 17,10 10,195 -9,249 -31,88 -71,158 -128,225 -73,87 -99,141 -98,210 1,68 11,89 88,169 74,77 118,101 186,101 63,0 89,-13 210,-104 92,-69 116,-83 210,-122 68,-29 239,-26 297,4 97,51 152,135 160,246 7,87 -7,139 -48,189 -78,94 -168,112 -283,56 -66,-32 -95,-66 -73,-88 16,-16 41,-14 68,7 39,30 115,52 147,42 49,-13 70,-29 97,-68 21,-31 25,-48 25,-109 0,-111 -43,-176 -143,-218 -107,-44 -298,16 -445,140 -13,11 -51,35 -85,53 -53,29 -72,33 -134,34 -70,0 -107,-12 -155,-51 -15,-12 -18,-12 -23,1 -4,9 -5,35 -3,58 3,46 -15,35 178,112 41,17 89,36 105,43 17,8 53,22 80,33 36,15 51,27 53,43 7,43 -39,50 -108,18 z m -370,-277 c 3,-29 3,-57 -1,-63 -3,-6 -32,-9 -65,-7 l -59,3 -3,48 c -4,65 9,79 72,75 l 51,-3 z"
         id="path909" />
      <path
         d="m 11639,12821 c -45,-44 -52,-92 -22,-139 32,-48 55,-61 108,-62 42,0 56,5 82,28 55,51 56,141 2,186 -24,20 -41,26 -81,26 -45,0 -54,-4 -89,-39 z m 143,-46 c 16,-36 0,-77 -35,-89 -22,-8 -31,-6 -52,14 -46,43 -25,100 38,100 30,0 40,-5 49,-25 z"
         id="path917" />
      <path
         d="m 11059,12619 c -26,-10 -59,-65 -59,-98 0,-13 -10,-20 -31,-25 -67,-13 -118,-77 -105,-131 17,-68 110,-125 202,-125 64,0 140,19 159,40 19,21 31,143 21,211 -9,64 -67,127 -121,134 -22,2 -52,0 -66,-6 z m 77,-57 c 32,-22 44,-59 44,-137 0,-50 -5,-86 -12,-93 -8,-8 -45,-12 -102,-12 -78,0 -93,3 -113,22 -28,26 -30,64 -4,78 11,5 37,10 59,10 49,0 60,13 59,68 -2,55 34,88 69,64 z"
         id="path925" />
      <path
         d="m 10700,11879 c -62,-52 -76,-115 -39,-175 38,-62 143,-71 194,-17 51,55 45,135 -13,183 -45,37 -103,41 -142,9 z m 102,-66 c 38,-35 9,-103 -44,-103 -26,0 -58,36 -58,64 0,45 67,71 102,39 z"
         id="path937" />
    </g>
  </g>
</svg>
